<svg id="Capa_1" enable-background="new 0 0 512.023 512.023" height="512" viewBox="0 0 512.023 512.023" width="512" xmlns="http://www.w3.org/2000/svg"><g><path d="m511.7 261.262-239.7-30.095-272 29.795v69.3l109.999 24-109.999 36v75h512v-75l-96-36 96-24c0-57.015.146-64.541-.3-69z" fill="#99665c"/><path d="m512 390.262-96-36 96-24c0-57.015.146-64.541-.3-69l-239.7-30.095-15.15 1.672v232.423h255.15z" fill="#804a40"/><path d="m377 73.462-377 187.5h287c16.5 0 30 13.5 30 30v.3c0 16.5 13.5 30 30 30s30-13.5 30-30c0-16.501 13.5-30 30-30h104.7c-3.674-82.871-61.394-150.382-134.7-187.8z" fill="#804a40"/><path d="m256.85 260.962h30.15c16.5 0 30 13.5 30 30v.3c0 16.5 13.5 30 30 30s30-13.5 30-30c0-16.501 13.5-30 30-30h104.7c-3.673-82.872-61.393-150.383-134.7-187.8l-120.15 60.075z" fill="#663328"/><g id="Chocolate_Brownie_Cake_3_"><g><g><g><path d="m512 330.262v60h-285c-16.5 0-30 13.5-30 30s-13.5 30-30 30-30-13.5-30-30-13.5-30-30-30h-107v-60z" fill="#804a40"/></g></g></g><g><path d="m362 150.262h-30c0-49.746-51.24-76.348-51.738-76.611l13.447-26.807c2.783 1.391 68.291 34.936 68.291 103.418z" fill="#ff80aa"/></g></g><g><path d="m347 225.262c-24.814 0-45-20.186-45-45s20.186-45 45-45 45 20.186 45 45-20.186 45-45 45z" fill="#ff4d88"/></g><path d="m256.85 330.262h255.15v60h-255.15z" fill="#663328"/><g><path d="m272 150.262h-30c0-49.801-51.301-76.201-51.599-76.5l13.198-27.001c2.1.899 33.602 17.1 53.101 49.501 6.601 10.8 11.7 23.699 14.101 38.399.298 1.199.599 2.401.599 3.3.3 4.5.6 8.701.6 12.301z" fill="#ffb3cc"/></g><g><path d="m257 225.262c-24.814 0-45-20.186-45-45s20.186-45 45-45 45 20.186 45 45-20.186 45-45 45z" fill="#ff80aa"/></g><path d="m256.85 225.247c.051 0 .099.015.15.015 24.814 0 45-20.186 45-45s-20.186-45-45-45c-.051 0-.099.015-.15.015z" fill="#ff4d88"/></g></svg>