<svg width="24" height="25" viewBox="0 0 24 25" fill="none" xmlns="http://www.w3.org/2000/svg">
<path d="M22 6.21999L17.4 2.35999L16.11 3.88999L20.71 7.74999L22 6.21999ZM7.88 3.88999L6.6 2.35999L2 6.20999L3.29 7.73998L7.88 3.88999ZM12.5 8.49999H11V14.5L15.75 17.35L16.5 16.12L12.5 13.75V8.49999ZM12 4.49999C7.03 4.49999 3 8.52999 3 13.5C3 18.47 7.02 22.5 12 22.5C16.97 22.5 21 18.47 21 13.5C21 8.52999 16.97 4.49999 12 4.49999ZM12 20.5C8.13 20.5 5 17.37 5 13.5C5 9.62999 8.13 6.49999 12 6.49999C15.87 6.49999 19 9.62999 19 13.5C19 17.37 15.87 20.5 12 20.5Z" fill="white"/>
</svg>
