<svg width="31" height="31" viewBox="0 0 31 31" fill="none" xmlns="http://www.w3.org/2000/svg">
<path d="M9.04163 23.25C7.62079 23.25 6.47121 24.4125 6.47121 25.8333C6.47121 27.2542 7.62079 28.4167 9.04163 28.4167C10.4625 28.4167 11.625 27.2542 11.625 25.8333C11.625 24.4125 10.4625 23.25 9.04163 23.25ZM1.29163 2.58333V5.16667H3.87496L8.52496 14.9704L6.78121 18.135C6.57454 18.4967 6.45829 18.9229 6.45829 19.375C6.45829 20.7958 7.62079 21.9583 9.04163 21.9583H24.5416V19.375H9.58413C9.40329 19.375 9.26121 19.2329 9.26121 19.0521L9.29996 18.8971L10.4625 16.7917H20.0854C21.0541 16.7917 21.9066 16.2621 22.3458 15.4613L26.97 7.07833C27.0733 6.8975 27.125 6.67792 27.125 6.45833C27.125 5.74792 26.5437 5.16667 25.8333 5.16667H6.72954L5.51538 2.58333H1.29163ZM21.9583 23.25C20.5375 23.25 19.3879 24.4125 19.3879 25.8333C19.3879 27.2542 20.5375 28.4167 21.9583 28.4167C23.3791 28.4167 24.5416 27.2542 24.5416 25.8333C24.5416 24.4125 23.3791 23.25 21.9583 23.25Z" fill="#000080"/>
</svg>
