<svg width="19" height="19" viewBox="0 0 19 19" fill="none" xmlns="http://www.w3.org/2000/svg">
<path d="M13.6247 7.12502L10.1572 1.93168C10.0067 1.71002 9.75341 1.59918 9.50008 1.59918C9.24675 1.59918 8.99341 1.71002 8.843 1.9396L5.3755 7.12502H1.58341C1.148 7.12502 0.791748 7.48127 0.791748 7.91668C0.791748 7.98793 0.799665 8.05918 0.823415 8.13043L2.83425 15.4692C3.01633 16.1342 3.62591 16.625 4.35425 16.625H14.6459C15.3742 16.625 15.9838 16.1342 16.1738 15.4692L18.1847 8.13043L18.2084 7.91668C18.2084 7.48127 17.8522 7.12502 17.4167 7.12502H13.6247ZM7.12508 7.12502L9.50008 3.64168L11.8751 7.12502H7.12508ZM9.50008 13.4583C8.62925 13.4583 7.91675 12.7458 7.91675 11.875C7.91675 11.0042 8.62925 10.2917 9.50008 10.2917C10.3709 10.2917 11.0834 11.0042 11.0834 11.875C11.0834 12.7458 10.3709 13.4583 9.50008 13.4583Z" fill="white"/>
</svg>
