<svg width="43" height="43" viewBox="0 0 43 43" fill="none" xmlns="http://www.w3.org/2000/svg">
<path d="M21.5 14.3333C23.4708 14.3333 25.0833 12.7208 25.0833 10.75C25.0833 8.77917 23.4708 7.16667 21.5 7.16667C19.5291 7.16667 17.9166 8.77917 17.9166 10.75C17.9166 12.7208 19.5291 14.3333 21.5 14.3333ZM21.5 17.9167C19.5291 17.9167 17.9166 19.5292 17.9166 21.5C17.9166 23.4708 19.5291 25.0833 21.5 25.0833C23.4708 25.0833 25.0833 23.4708 25.0833 21.5C25.0833 19.5292 23.4708 17.9167 21.5 17.9167ZM21.5 28.6667C19.5291 28.6667 17.9166 30.2792 17.9166 32.25C17.9166 34.2208 19.5291 35.8333 21.5 35.8333C23.4708 35.8333 25.0833 34.2208 25.0833 32.25C25.0833 30.2792 23.4708 28.6667 21.5 28.6667Z" fill="#000080"/>
</svg>
