<svg width="32" height="32" viewBox="0 0 32 32" fill="none" xmlns="http://www.w3.org/2000/svg">
<path d="M26.6667 7.99999H23.7601C23.9067 7.58666 24.0001 7.13332 24.0001 6.66666C24.0001 4.45332 22.2134 2.66666 20.0001 2.66666C18.6001 2.66666 17.3867 3.38666 16.6667 4.46666L16.0001 5.35999L15.3334 4.45332C14.6134 3.38666 13.4001 2.66666 12.0001 2.66666C9.78675 2.66666 8.00008 4.45332 8.00008 6.66666C8.00008 7.13332 8.09341 7.58666 8.24008 7.99999H5.33341C3.85341 7.99999 2.68008 9.18666 2.68008 10.6667L2.66675 25.3333C2.66675 26.8133 3.85341 28 5.33341 28H26.6667C28.1467 28 29.3334 26.8133 29.3334 25.3333V10.6667C29.3334 9.18666 28.1467 7.99999 26.6667 7.99999ZM20.0001 5.33332C20.7334 5.33332 21.3334 5.93332 21.3334 6.66666C21.3334 7.39999 20.7334 7.99999 20.0001 7.99999C19.2667 7.99999 18.6667 7.39999 18.6667 6.66666C18.6667 5.93332 19.2667 5.33332 20.0001 5.33332ZM12.0001 5.33332C12.7334 5.33332 13.3334 5.93332 13.3334 6.66666C13.3334 7.39999 12.7334 7.99999 12.0001 7.99999C11.2667 7.99999 10.6667 7.39999 10.6667 6.66666C10.6667 5.93332 11.2667 5.33332 12.0001 5.33332ZM26.6667 25.3333H5.33341V22.6667H26.6667V25.3333ZM26.6667 18.6667H5.33341V10.6667H12.1067L9.33342 14.44L11.4934 16L14.6667 11.68L16.0001 9.86666L17.3334 11.68L20.5067 16L22.6667 14.44L19.8934 10.6667H26.6667V18.6667Z" fill="white"/>
</svg>
