<svg width="24" height="25" viewBox="0 0 24 25" fill="none" xmlns="http://www.w3.org/2000/svg">
<path d="M17.5 10.5C17.47 10.5 17.45 10.51 17.42 10.51L13.41 6.5H9V8.5H12.59L14.59 10.5H6.49C4.01 10.5 2 12.52 2 15C2 17.49 4.01 19.5 6.5 19.5C8.72 19.5 10.56 17.88 10.92 15.77L13.04 14.5C13.02 14.67 13 14.83 13 15C13 17.49 15.01 19.5 17.5 19.5C19.99 19.5 22 17.49 22 15C22 12.51 19.99 10.5 17.5 10.5ZM8.84 15.76C8.52 16.77 7.58 17.5 6.47 17.5C5.09 17.5 3.97 16.38 3.97 15C3.97 13.62 5.09 12.5 6.47 12.5C7.59 12.5 8.52 13.24 8.84 14.25H6V15.75L8.84 15.76ZM17.47 17.5C16.09 17.5 14.97 16.38 14.97 15C14.97 13.62 16.09 12.5 17.47 12.5C18.85 12.5 19.97 13.62 19.97 15C19.97 16.38 18.85 17.5 17.47 17.5Z" fill="white"/>
</svg>
