<svg width="309" height="106" viewBox="0 0 309 106" fill="none" xmlns="http://www.w3.org/2000/svg">
<path d="M26.216 27.416C27.464 30.52 28.744 33.176 30.056 35.384C31.4 37.56 32.648 39.096 33.8 39.992C33.224 40.568 32.344 41.08 31.16 41.528C29.976 41.976 28.92 42.2 27.992 42.2C26.68 42.2 25.576 41.96 24.68 41.48C23.784 41 22.952 40.2 22.184 39.08C21.448 37.928 20.68 36.296 19.88 34.184L18.008 29.48H17.384C15.336 29.48 13.592 29.176 12.152 28.568C11.672 31.608 11.432 33.8 11.432 35.144C11.432 36.392 11.528 37.432 11.72 38.264C11.944 39.064 12.28 39.784 12.728 40.424C11.128 41.64 9.448 42.248 7.688 42.248C5.96 42.248 4.712 41.816 3.944 40.952C3.176 40.088 2.792 38.696 2.792 36.776C2.792 35.176 3.016 32.792 3.464 29.624C3.912 26.456 4.776 21.032 6.056 13.352L3.944 9.08C6.984 7.128 9.736 6.152 12.2 6.152C13.608 6.152 14.536 6.76 14.984 7.976C17.032 6.824 19.464 6.248 22.28 6.248C24.456 6.248 26.328 6.712 27.896 7.64C29.496 8.568 30.696 9.8 31.496 11.336C32.328 12.872 32.744 14.52 32.744 16.28C32.744 18.488 32.184 20.6 31.064 22.616C29.944 24.6 28.328 26.2 26.216 27.416ZM15.08 24.392C17.672 24.392 19.768 23.704 21.368 22.328C23 20.952 23.816 19.16 23.816 16.952C23.816 15.416 23.336 14.12 22.376 13.064C21.448 12.008 20.024 11.48 18.104 11.48C17.112 11.48 16.088 11.704 15.032 12.152L13.592 20.168L12.872 24.152C13.672 24.312 14.408 24.392 15.08 24.392ZM46.4844 8.984C45.1724 8.984 44.1004 8.68 43.2684 8.072C42.4684 7.432 42.0684 6.568 42.0684 5.48C42.0684 4.136 42.6444 3.048 43.7964 2.216C44.9484 1.352 46.2444 0.919998 47.6844 0.919998C48.9964 0.919998 50.0524 1.24 50.8524 1.88C51.6844 2.488 52.1004 3.32 52.1004 4.376C52.1004 5.72 51.5404 6.824 50.4204 7.688C49.3324 8.552 48.0204 8.984 46.4844 8.984ZM43.0284 42.2C41.3964 42.2 40.1964 41.8 39.4284 41C38.6924 40.168 38.3244 38.92 38.3244 37.256C38.3244 35.976 38.6124 33.8 39.1884 30.728C39.7964 27.624 40.6604 23.576 41.7804 18.584L39.3324 15.176C40.5484 14.28 41.8604 13.56 43.2684 13.016C44.6764 12.472 45.9884 12.2 47.2044 12.2C48.3884 12.2 49.2204 12.456 49.7004 12.968C50.2124 13.448 50.4684 14.264 50.4684 15.416C50.4684 15.864 50.1004 17.64 49.3644 20.744C48.5324 24.2 47.8604 27.24 47.3484 29.864C46.8364 32.456 46.5804 34.696 46.5804 36.584C46.5804 38.376 46.9964 39.592 47.8284 40.232C46.3244 41.544 44.7244 42.2 43.0284 42.2ZM58.4698 25.736C58.4698 22.76 58.2778 20.344 57.8938 18.488C57.5418 16.6 56.8058 15.08 55.6858 13.928C57.1578 12.776 58.7578 12.2 60.4858 12.2C61.8938 12.2 63.0138 12.6 63.8458 13.4C64.7098 14.2 65.3498 15.544 65.7657 17.432C66.2138 19.32 66.4378 21.912 66.4378 25.208C66.4378 30.712 66.3898 34.648 66.2938 37.016H66.7738C69.8458 32.504 72.1658 28.568 73.7338 25.208C75.3338 21.816 76.1338 19.304 76.1338 17.672C76.1338 16.36 75.8298 15.112 75.2218 13.928C76.0218 13.384 76.8858 12.968 77.8138 12.68C78.7738 12.36 79.7178 12.2 80.6458 12.2C81.7978 12.2 82.6778 12.536 83.2858 13.208C83.9258 13.848 84.2458 14.792 84.2458 16.04C84.2458 17.64 83.5738 19.896 82.2298 22.808C80.8858 25.72 78.4058 30.296 74.7898 36.536L75.7498 38.648C74.6298 39.672 73.1578 40.52 71.3338 41.192C69.5418 41.864 67.8298 42.2 66.1978 42.2C64.2778 42.2 62.7578 41.864 61.6378 41.192C60.5178 40.552 59.7018 39.496 59.1898 38.024C58.6778 36.552 58.4218 34.568 58.4218 32.072L58.4698 25.736ZM101.313 42.2C98.7851 42.2 96.5771 41.688 94.6891 40.664C92.8011 39.608 91.3451 38.136 90.3211 36.248C89.2971 34.328 88.7851 32.104 88.7851 29.576C88.7851 26.216 89.5371 23.224 91.0411 20.6C92.5451 17.944 94.6411 15.88 97.3291 14.408C100.017 12.936 103.057 12.2 106.449 12.2C107.665 12.2 108.849 12.328 110.001 12.584C110.353 13.576 110.513 14.68 110.481 15.896C107.697 15.896 105.281 16.504 103.233 17.72C101.185 18.936 99.6171 20.6 98.5291 22.712C97.4411 24.792 96.8971 27.144 96.8971 29.768C96.8971 32.488 97.3771 34.536 98.3371 35.912C99.3291 37.256 100.705 37.928 102.465 37.928C104.705 37.928 106.577 37.032 108.081 35.24C109.585 33.416 110.513 30.952 110.865 27.848C108.401 26.408 107.169 24.344 107.169 21.656C107.169 19.992 107.665 18.6 108.657 17.48C109.681 16.328 110.929 15.752 112.401 15.752C114.129 15.752 115.505 16.456 116.529 17.864C117.585 19.272 118.113 21.16 118.113 23.528C118.113 26.952 117.361 30.104 115.857 32.984C114.385 35.832 112.353 38.088 109.761 39.752C107.201 41.384 104.385 42.2 101.313 42.2ZM128.947 42.2C127.411 42.2 126.275 41.736 125.539 40.808C124.835 39.88 124.483 38.44 124.483 36.488C124.483 34.952 124.867 31.784 125.635 26.984C126.435 22.184 127.411 16.536 128.563 10.04L126.067 6.728C127.219 5.864 128.483 5.16 129.859 4.616C131.267 4.072 132.547 3.8 133.699 3.8C134.947 3.8 135.843 4.04 136.387 4.52C136.931 5 137.203 5.8 137.203 6.92C137.203 7.592 137.075 8.568 136.819 9.848C136.595 11.128 136.243 12.888 135.763 15.128C134.835 19.32 134.083 23.096 133.507 26.456C132.963 29.816 132.691 32.968 132.691 35.912C132.691 37.032 132.787 37.912 132.979 38.552C133.203 39.192 133.539 39.752 133.987 40.232C133.283 40.872 132.483 41.352 131.587 41.672C130.691 42.024 129.811 42.2 128.947 42.2ZM150.828 8.984C149.516 8.984 148.444 8.68 147.612 8.072C146.812 7.432 146.412 6.568 146.412 5.48C146.412 4.136 146.988 3.048 148.14 2.216C149.292 1.352 150.588 0.919998 152.028 0.919998C153.34 0.919998 154.396 1.24 155.196 1.88C156.028 2.488 156.444 3.32 156.444 4.376C156.444 5.72 155.884 6.824 154.764 7.688C153.676 8.552 152.364 8.984 150.828 8.984ZM147.372 42.2C145.74 42.2 144.54 41.8 143.772 41C143.036 40.168 142.668 38.92 142.668 37.256C142.668 35.976 142.956 33.8 143.532 30.728C144.14 27.624 145.004 23.576 146.124 18.584L143.676 15.176C144.892 14.28 146.204 13.56 147.612 13.016C149.02 12.472 150.332 12.2 151.548 12.2C152.732 12.2 153.564 12.456 154.044 12.968C154.556 13.448 154.812 14.264 154.812 15.416C154.812 15.864 154.444 17.64 153.708 20.744C152.876 24.2 152.204 27.24 151.692 29.864C151.18 32.456 150.924 34.696 150.924 36.584C150.924 38.376 151.34 39.592 152.172 40.232C150.668 41.544 149.068 42.2 147.372 42.2ZM15.464 97.2C10.856 97.2 7.256 95.952 4.664 93.456C2.072 90.96 0.776 87.472 0.776 82.992C0.776 78.864 1.72 75.136 3.608 71.808C5.496 68.48 8.072 65.872 11.336 63.984C14.6 62.096 18.248 61.152 22.28 61.152C25.032 61.152 27.208 61.632 28.808 62.592C30.408 63.52 31.208 64.816 31.208 66.48C31.208 67.856 30.712 68.992 29.72 69.888C28.76 70.752 27.528 71.184 26.024 71.184C24.552 71.184 23.192 70.8 21.944 70.032C20.696 69.264 19.704 68.128 18.968 66.624C17.176 67.328 15.56 68.512 14.12 70.176C12.712 71.808 11.608 73.76 10.808 76.032C10.008 78.272 9.608 80.672 9.608 83.232C9.608 86.24 10.136 88.592 11.192 90.288C12.28 91.952 13.8 92.784 15.752 92.784C17.256 92.784 18.616 92.384 19.832 91.584C21.048 90.784 22.008 89.696 22.712 88.32C23.448 86.944 23.864 85.424 23.96 83.76C27.576 83.76 29.384 85.104 29.384 87.792C29.384 89.488 28.76 91.056 27.512 92.496C26.264 93.936 24.568 95.088 22.424 95.952C20.312 96.784 17.992 97.2 15.464 97.2ZM47.5475 97.2C45.0195 97.2 42.8115 96.688 40.9235 95.664C39.0355 94.608 37.5795 93.136 36.5555 91.248C35.5315 89.328 35.0195 87.104 35.0195 84.576C35.0195 81.216 35.7715 78.224 37.2755 75.6C38.7795 72.944 40.8755 70.88 43.5635 69.408C46.2515 67.936 49.2915 67.2 52.6835 67.2C53.8995 67.2 55.0835 67.328 56.2355 67.584C56.5875 68.576 56.7475 69.68 56.7155 70.896C53.9315 70.896 51.5155 71.504 49.4675 72.72C47.4195 73.936 45.8515 75.6 44.7635 77.712C43.6755 79.792 43.1315 82.144 43.1315 84.768C43.1315 87.488 43.6115 89.536 44.5715 90.912C45.5635 92.256 46.9395 92.928 48.6995 92.928C50.9395 92.928 52.8115 92.032 54.3155 90.24C55.8195 88.416 56.7475 85.952 57.0995 82.848C54.6355 81.408 53.4035 79.344 53.4035 76.656C53.4035 74.992 53.8995 73.6 54.8915 72.48C55.9155 71.328 57.1635 70.752 58.6355 70.752C60.3635 70.752 61.7395 71.456 62.7635 72.864C63.8195 74.272 64.3475 76.16 64.3475 78.528C64.3475 81.952 63.5955 85.104 62.0915 87.984C60.6195 90.832 58.5875 93.088 55.9955 94.752C53.4355 96.384 50.6195 97.2 47.5475 97.2ZM75.0373 97.2C73.4053 97.2 72.2053 96.784 71.4373 95.952C70.7013 95.12 70.3333 93.888 70.3333 92.256C70.3333 90.944 70.7013 88.304 71.4373 84.336C72.1733 80.336 72.9573 76.576 73.7893 73.056L71.4373 69.792C72.6213 69.024 73.8693 68.416 75.1813 67.968C76.5253 67.488 77.8053 67.248 79.0213 67.248C80.2053 67.248 81.0693 67.52 81.6133 68.064C82.1573 68.608 82.4293 69.424 82.4293 70.512C82.4293 71.344 82.3173 72.24 82.0933 73.2C81.8693 74.128 81.5653 74.976 81.1813 75.744L81.6613 75.984C84.9893 70.128 89.2773 67.2 94.5253 67.2C96.5413 67.2 98.0293 67.696 98.9893 68.688C99.9813 69.68 100.477 71.2 100.477 73.248C100.477 74.4 100.365 75.584 100.141 76.8C99.9173 78.016 99.5493 79.68 99.0373 81.792C98.5253 83.872 98.1253 85.664 97.8373 87.168C97.5493 88.672 97.4053 90.144 97.4053 91.584C97.4053 93.216 97.6933 94.432 98.2693 95.232C96.8613 96.544 95.3893 97.2 93.8533 97.2C92.2213 97.2 91.0373 96.784 90.3013 95.952C89.5653 95.12 89.1973 93.888 89.1973 92.256C89.1973 90.976 89.3253 89.648 89.5813 88.272C89.8693 86.896 90.2853 85.12 90.8293 82.944C91.2773 81.184 91.5973 79.808 91.7893 78.816C92.0133 77.824 92.1252 76.928 92.1252 76.128C92.1252 74.304 91.4053 73.392 89.9653 73.392C88.3653 73.392 86.6693 74.24 84.8773 75.936C83.0853 77.632 81.5813 79.888 80.3653 82.704C79.1813 85.488 78.5893 88.448 78.5893 91.584C78.5893 93.216 78.8773 94.432 79.4532 95.232C77.9813 96.544 76.5093 97.2 75.0373 97.2ZM120.484 67.152C119.044 67.152 117.78 66.752 116.692 65.952L116.116 66.384L118.228 73.392C119.828 73.104 121.364 72.704 122.836 72.192C123.06 72.864 123.172 73.52 123.172 74.16C123.172 75.312 122.804 76.24 122.068 76.944C121.364 77.616 120.372 78.032 119.092 78.192C118.068 82.352 117.22 86.528 116.548 90.72C115.908 94.88 115.588 97.968 115.588 99.984C115.588 101.744 116.02 102.96 116.884 103.632C114.964 104.944 113.22 105.6 111.652 105.6C110.244 105.6 109.14 105.168 108.34 104.304C107.54 103.472 107.14 102.272 107.14 100.704C107.14 99.264 107.428 96.848 108.004 93.456C108.58 90.032 109.508 85.216 110.788 79.008C109.636 79.2 108.388 79.536 107.044 80.016C106.82 79.344 106.708 78.688 106.708 78.048C106.708 76.768 107.14 75.776 108.004 75.072C108.9 74.368 110.1 73.984 111.604 73.92C111.38 72.224 111.268 70.528 111.268 68.832C111.268 65.408 112.02 62.784 113.524 60.96C115.06 59.136 117.172 58.224 119.86 58.224C121.396 58.224 122.676 58.656 123.7 59.52C124.724 60.384 125.236 61.472 125.236 62.784C125.236 64.096 124.788 65.152 123.892 65.952C123.028 66.752 121.892 67.152 120.484 67.152ZM153.917 74.112C153.917 76.32 153.165 78.224 151.661 79.824C150.157 81.424 147.981 82.656 145.133 83.52C142.285 84.384 138.893 84.832 134.957 84.864V85.488C134.957 87.824 135.373 89.648 136.205 90.96C137.037 92.272 138.189 92.928 139.661 92.928C141.453 92.928 142.925 92.304 144.077 91.056C145.229 89.808 145.853 88.16 145.949 86.112C147.613 86.112 148.877 86.432 149.741 87.072C150.637 87.68 151.085 88.576 151.085 89.76C151.085 91.104 150.541 92.352 149.453 93.504C148.365 94.624 146.877 95.52 144.989 96.192C143.133 96.864 141.069 97.2 138.797 97.2C135.053 97.2 132.125 96.144 130.013 94.032C127.901 91.92 126.845 89.008 126.845 85.296C126.845 81.872 127.629 78.784 129.197 76.032C130.797 73.28 132.989 71.12 135.773 69.552C138.557 67.984 141.677 67.2 145.133 67.2C147.917 67.2 150.077 67.808 151.613 69.024C153.149 70.24 153.917 71.936 153.917 74.112ZM143.837 71.808C141.917 71.808 140.157 72.736 138.557 74.592C136.989 76.448 135.917 78.784 135.341 81.6C138.989 81.44 141.805 80.768 143.789 79.584C145.805 78.368 146.813 76.736 146.813 74.688C146.813 73.824 146.541 73.136 145.997 72.624C145.453 72.08 144.733 71.808 143.837 71.808ZM167.656 63.984C166.344 63.984 165.272 63.68 164.44 63.072C163.64 62.432 163.24 61.568 163.24 60.48C163.24 59.136 163.816 58.048 164.968 57.216C166.12 56.352 167.416 55.92 168.856 55.92C170.168 55.92 171.224 56.24 172.024 56.88C172.856 57.488 173.272 58.32 173.272 59.376C173.272 60.72 172.712 61.824 171.592 62.688C170.504 63.552 169.192 63.984 167.656 63.984ZM164.2 97.2C162.568 97.2 161.368 96.8 160.6 96C159.864 95.168 159.496 93.92 159.496 92.256C159.496 90.976 159.784 88.8 160.36 85.728C160.968 82.624 161.832 78.576 162.952 73.584L160.504 70.176C161.72 69.28 163.032 68.56 164.44 68.016C165.848 67.472 167.16 67.2 168.376 67.2C169.56 67.2 170.392 67.456 170.872 67.968C171.384 68.448 171.64 69.264 171.64 70.416C171.64 70.864 171.272 72.64 170.536 75.744C169.704 79.2 169.032 82.24 168.52 84.864C168.008 87.456 167.752 89.696 167.752 91.584C167.752 93.376 168.168 94.592 169 95.232C167.496 96.544 165.896 97.2 164.2 97.2ZM194.522 69.744C195.61 69.744 196.362 69.92 196.778 70.272C197.194 70.592 197.402 71.184 197.402 72.048C197.402 72.848 197.146 73.808 196.634 74.928C195.386 74.544 193.914 74.352 192.218 74.352H191.21C190.346 77.328 189.626 80.16 189.05 82.848C188.506 85.536 188.218 88.224 188.186 90.912L190.442 94.704C189.546 95.504 188.57 96.112 187.514 96.528C186.49 96.976 185.498 97.2 184.538 97.2C183.098 97.2 181.962 96.816 181.13 96.048C180.298 95.312 179.882 93.92 179.882 91.872C179.882 90.336 180.074 88.576 180.458 86.592C180.874 84.608 181.45 82.176 182.186 79.296L183.146 75.264C182.314 75.328 181.69 75.36 181.274 75.36C180.186 75.36 179.434 75.2 179.018 74.88C178.602 74.528 178.394 73.936 178.394 73.104C178.394 72.176 178.65 71.2 179.162 70.176C180.346 70.56 181.834 70.752 183.626 70.752H183.914V70.464C183.914 68.768 183.61 67.072 183.002 65.376C183.93 64.512 185.018 63.824 186.266 63.312C187.546 62.768 188.826 62.496 190.106 62.496C191.29 62.496 192.122 62.752 192.602 63.264C193.114 63.776 193.37 64.624 193.37 65.808C193.37 66.544 193.098 67.888 192.554 69.84C193.45 69.776 194.106 69.744 194.522 69.744ZM225.915 91.584C225.915 93.344 226.331 94.56 227.163 95.232C225.563 96.544 223.883 97.2 222.123 97.2C220.715 97.2 219.627 96.784 218.859 95.952C218.091 95.12 217.707 93.936 217.707 92.4C217.707 91.824 217.787 91.088 217.947 90.192L217.467 89.952C216.475 92.224 215.115 94 213.387 95.28C211.659 96.56 209.755 97.2 207.675 97.2C205.915 97.2 204.363 96.736 203.019 95.808C201.675 94.88 200.635 93.568 199.899 91.872C199.163 90.144 198.795 88.16 198.795 85.92C198.795 82.336 199.595 79.12 201.195 76.272C202.827 73.424 205.067 71.2 207.915 69.6C210.795 68 214.043 67.2 217.659 67.2C219.035 67.2 220.395 67.328 221.739 67.584C221.995 68.16 222.171 68.848 222.267 69.648C223.387 68.816 224.651 68.4 226.059 68.4C227.083 68.4 227.867 68.672 228.411 69.216C228.955 69.76 229.227 70.544 229.227 71.568C229.227 72.24 229.115 73.088 228.891 74.112C228.699 75.136 228.395 76.544 227.979 78.336C227.307 81.312 226.795 83.792 226.443 85.776C226.091 87.76 225.915 89.696 225.915 91.584ZM211.179 90.384C213.771 90.384 215.867 88.8 217.467 85.632C219.099 82.432 220.283 77.536 221.019 70.944C218.299 71.136 215.867 71.872 213.723 73.152C211.579 74.4 209.899 76.048 208.683 78.096C207.499 80.112 206.907 82.32 206.907 84.72C206.907 86.512 207.275 87.904 208.011 88.896C208.779 89.888 209.835 90.384 211.179 90.384ZM240.319 97.2C238.687 97.2 237.487 96.768 236.719 95.904C235.983 95.04 235.615 93.744 235.615 92.016C235.615 90.8 235.967 88.24 236.671 84.336C237.407 80.432 238.223 76.672 239.118 73.056L236.719 69.792C238.959 68.096 240.991 67.248 242.815 67.248C243.967 67.248 244.815 67.536 245.359 68.112C245.935 68.688 246.223 69.488 246.223 70.512C246.223 71.536 246.079 72.576 245.791 73.632C245.503 74.688 245.087 75.904 244.543 77.28L245.023 77.52C246.367 74.032 247.727 71.44 249.103 69.744C250.511 68.048 252.207 67.2 254.191 67.2C255.503 67.2 256.527 67.552 257.263 68.256C257.999 68.96 258.367 69.936 258.367 71.184C258.367 72.624 257.871 73.808 256.879 74.736C255.919 75.632 254.575 76.08 252.847 76.08C251.279 76.08 249.807 76.8 248.431 78.24C247.055 79.648 245.951 81.552 245.119 83.952C244.287 86.352 243.871 88.896 243.871 91.584C243.871 93.216 244.159 94.432 244.734 95.232C243.327 96.544 241.855 97.2 240.319 97.2ZM269.234 63.984C267.922 63.984 266.85 63.68 266.018 63.072C265.218 62.432 264.818 61.568 264.818 60.48C264.818 59.136 265.394 58.048 266.546 57.216C267.698 56.352 268.994 55.92 270.434 55.92C271.746 55.92 272.802 56.24 273.602 56.88C274.434 57.488 274.85 58.32 274.85 59.376C274.85 60.72 274.29 61.824 273.17 62.688C272.082 63.552 270.77 63.984 269.234 63.984ZM265.778 97.2C264.146 97.2 262.946 96.8 262.178 96C261.442 95.168 261.074 93.92 261.074 92.256C261.074 90.976 261.362 88.8 261.938 85.728C262.546 82.624 263.41 78.576 264.53 73.584L262.082 70.176C263.298 69.28 264.61 68.56 266.018 68.016C267.426 67.472 268.738 67.2 269.954 67.2C271.138 67.2 271.97 67.456 272.45 67.968C272.962 68.448 273.218 69.264 273.218 70.416C273.218 70.864 272.85 72.64 272.114 75.744C271.282 79.2 270.61 82.24 270.098 84.864C269.586 87.456 269.33 89.696 269.33 91.584C269.33 93.376 269.746 94.592 270.578 95.232C269.074 96.544 267.474 97.2 265.778 97.2ZM305.556 91.584C305.556 93.344 305.972 94.56 306.804 95.232C305.204 96.544 303.524 97.2 301.764 97.2C300.356 97.2 299.268 96.784 298.5 95.952C297.732 95.12 297.348 93.936 297.348 92.4C297.348 91.824 297.428 91.088 297.588 90.192L297.108 89.952C296.116 92.224 294.756 94 293.028 95.28C291.3 96.56 289.396 97.2 287.316 97.2C285.556 97.2 284.004 96.736 282.66 95.808C281.316 94.88 280.276 93.568 279.54 91.872C278.804 90.144 278.436 88.16 278.436 85.92C278.436 82.336 279.236 79.12 280.836 76.272C282.468 73.424 284.708 71.2 287.556 69.6C290.436 68 293.684 67.2 297.3 67.2C298.676 67.2 300.036 67.328 301.38 67.584C301.636 68.16 301.812 68.848 301.908 69.648C303.028 68.816 304.292 68.4 305.7 68.4C306.724 68.4 307.508 68.672 308.052 69.216C308.596 69.76 308.868 70.544 308.868 71.568C308.868 72.24 308.756 73.088 308.532 74.112C308.34 75.136 308.036 76.544 307.62 78.336C306.948 81.312 306.436 83.792 306.084 85.776C305.732 87.76 305.556 89.696 305.556 91.584ZM290.82 90.384C293.412 90.384 295.508 88.8 297.108 85.632C298.74 82.432 299.924 77.536 300.66 70.944C297.94 71.136 295.508 71.872 293.364 73.152C291.22 74.4 289.54 76.048 288.324 78.096C287.14 80.112 286.548 82.32 286.548 84.72C286.548 86.512 286.916 87.904 287.652 88.896C288.42 89.888 289.476 90.384 290.82 90.384Z" fill="white"/>
</svg>
